Motion_pl06
version=1
nRows=15
nColumns=43
inDegrees=yes
endheader
time	pelvis_tilt	pelvis_list	pelvis_rotation	pelvis_tx	pelvis_ty	pelvis_tz	hip_flexion_r	hip_adduction_r	hip_rotation_r	knee_angle_r	ankle_angle_r	subtalar_angle_r	mtp_angle_r	hip_flexion_l	hip_adduction_l	hip_rotation_l	knee_angle_l	ankle_angle_l	subtalar_angle_l	mtp_angle_l	lumbar_extension	lumbar_bending	lumbar_rotation	neck_flexion	neck_lateral_bending	neck_rotation	arm_flex_r	arm_add_r	arm_rot_r	elbow_flex_r	pro_sup_r	wrist_flex_r	wrist_dev_r	hand_finger_flex_r	arm_flex_l	arm_add_l	arm_rot_l	elbow_flex_l	pro_sup_l	wrist_flex_l	wrist_dev_l	hand_finger_flex_l
      0.71750000	     -0.12087648	     -5.25350414	     87.47878596	     -0.01541388	      1.84731180	      1.29323067	     52.05939604	     -7.45957644	      2.88623368	   -100.57051760	    -14.09166224	    -14.74159230	     10.08670872	     47.42928980	      2.26142694	      1.66302391	    -98.18538998	    -31.50408719	    -12.52240911	      8.92644180	    -52.38194161	     -1.73195738	      3.65791614	     12.25187529	     -0.15857251	     -3.32769139	    118.25601568	    -16.40092520	     44.59495753	     51.82074216	     85.67871780	    -30.12932646	     -3.79399374	     41.45391320	    111.45428000	     -7.88488001	     25.97587029	     59.72736146	    111.31197913	    -20.43362777	     10.48672746	     70.16158959
      0.72000000	     -0.07917178	     -4.99128612	     87.49312433	     -0.01541163	      1.84527237	      1.28935145	     52.35384475	     -7.36757582	      2.78274876	   -100.32006354	    -14.08581763	    -14.72124130	     10.08769558	     47.59053636	      2.28264254	      1.61377218	    -97.68530672	    -31.47649486	    -12.52389917	      8.92863291	    -52.71958163	     -1.70444051	      3.60802746	     12.41313825	     -0.17948293	     -3.32291321	    117.58185418	    -16.64135066	     44.81399135	     51.65388114	     85.71093247	    -30.06176170	     -3.72932460	     41.49138149	    110.87849502	     -8.11618186	     26.10277261	     59.49310303	    111.33737825	    -20.37046221	     10.53486713	     70.18332974
      0.72250000	     -0.05977149	     -4.70865755	     87.45450863	     -0.01554770	      1.84353482	      1.28503645	     52.55179034	     -7.29411698	      2.71650726	    -99.95357829	    -14.15556132	    -14.67586601	     10.08046180	     47.65416241	      2.28413185	      1.48047495	    -97.08500836	    -31.67110181	    -12.46630732	      8.92355665	    -53.06014777	     -1.69953476	      3.57853261	     12.17383341	     -0.25871269	     -3.23711762	    116.70447299	    -17.08727841	     44.98111684	     51.92015735	     85.90108347	    -29.91720143	     -3.69531359	     41.62880658	    110.07562171	     -8.53802342	     26.25167400	     59.67244636	    111.46677136	    -20.17385545	     10.54639851	     70.30802366
      0.72500000	     -0.01564876	     -4.44996915	     87.45820308	     -0.01557657	      1.84132262	      1.28120468	     52.83177979	     -7.17940472	      2.62819905	    -99.65829770	    -14.14371665	    -14.65951064	     10.08153730	     47.82523520	      2.30774796	      1.42712351	    -96.53663130	    -31.67502176	    -12.44915181	      8.92383426	    -53.39219054	     -1.67034269	      3.53711453	     12.36666205	     -0.28067290	     -3.22664230	    115.99157039	    -17.32395713	     45.18766002	     51.72159862	     85.92987249	    -29.85584669	     -3.61807010	     41.66821537	    109.48127547	     -8.78657249	     26.35982577	     59.40562597	    111.50139534	    -20.11084225	     10.60063755	     70.33715172
      0.72750000	      0.00378596	     -4.15852384	     87.38595164	     -0.01560288	      1.83952057	      1.27693724	     53.01050396	     -7.05529819	      2.57517849	    -99.25382790	    -14.24480595	    -14.62353088	     10.07163261	     47.87113633	      2.26857915	      1.26938543	    -95.85475612	    -31.97300528	    -12.29613365	      8.92211218	    -53.74956702	     -1.69576053	      3.50961645	     12.16591694	     -0.35645007	     -3.10166073	    115.05054405	    -17.73069535	     45.26385770	     51.95370284	     86.12465751	    -29.71775847	     -3.53877216	     41.84673318	    108.63927785	     -9.21575929	     26.42298818	     59.59569592	    111.69512712	    -19.90930652	     10.62432299	     70.51795470
      0.73000000	      0.04816257	     -3.91123379	     87.38557483	     -0.01561924	      1.83728539	      1.27303679	     53.28616432	     -6.93784450	      2.47913087	    -98.90261147	    -14.24356425	    -14.60457347	     10.07155492	     48.01968893	      2.28448429	      1.21253709	    -95.27017346	    -31.97110246	    -12.26855439	      8.92575330	    -54.07217740	     -1.67362365	      3.45372797	     12.37286936	     -0.37600500	     -3.08714215	    114.28805065	    -17.97966335	     45.48109979	     51.73987020	     86.15938087	    -29.64743772	     -3.44834066	     41.89910768	    108.01713170	     -9.47733956	     26.52590380	     59.31744325	    111.74297078	    -19.84268310	     10.68481004	     70.55607081
      0.73250000	      0.06923569	     -3.65428073	     87.32189937	     -0.01566903	      1.83555090	      1.26894201	     53.44651304	     -6.85737987	      2.37741534	    -98.34088918	    -14.37261643	    -14.55557609	     10.05919605	     48.07884238	      2.23162307	      1.05815462	    -94.49816573	    -32.14045189	    -12.09772959	      8.94004658	    -54.43532387	     -1.69922374	      3.40512449	     12.21722264	     -0.40989525	     -2.97806717	    113.37982426	    -18.38562515	     45.60940333	     51.88873205	     86.31871100	    -29.50098858	     -3.34411463	     42.08684313	    107.21532074	     -9.89992409	     26.56871212	     59.43502876	    111.92301948	    -19.68975198	     10.73136883	     70.71190488
      0.73500000	     -0.03005674	     -3.22813836	     87.08243115	     -0.01540261	      1.83360229	      1.26448643	     53.54926761	     -6.64069317	      2.54340553	    -97.96601245	    -14.67754941	    -14.75127422	     10.15186500	     47.92448776	      2.15400172	      0.71355525	    -93.78703118	    -32.13335109	    -11.60328646	      9.41107198	    -54.92691713	     -1.97728758	      3.28646188	     12.33395648	     -0.33674094	     -2.74596907	    112.15054306	    -18.48587757	     44.63946431	     51.98720305	     88.19911583	    -28.92907794	     -2.24242514	     43.54903482	    106.27897027	    -10.04125294	     25.91662520	     59.58294666	    113.86987035	    -18.72853708	     11.25452772	     71.67330717
      0.73750000	      0.02683745	     -2.99173799	     87.10574614	     -0.01542989	      1.83118670	      1.26053961	     53.80635471	     -6.51364667	      2.42875615	    -97.57998280	    -14.68648349	    -14.70815971	     10.15243220	     48.05787325	      2.17252626	      0.67650757	    -93.12028229	    -32.12616852	    -11.57661806	      9.41645433	    -55.23423553	     -1.93865938	      3.21830563	     12.52055503	     -0.36352061	     -2.73767788	    111.30841651	    -18.79779216	     44.91839996	     51.78082933	     88.22363473	    -28.85149166	     -2.17307264	     43.59804903	    105.60676229	    -10.32989514	     26.04050388	     59.30655432	    113.88396164	    -18.67548261	     11.30720194	     71.69045442
      0.74000000	      0.07471225	     -2.70700157	     87.12160735	     -0.01553043	      1.82922287	      1.25619909	     53.90218132	     -6.44981854	      2.27972310	    -97.02248914	    -14.88074236	    -14.56053605	     10.14547225	     48.05896811	      2.15742800	      0.59116344	    -92.31670130	    -32.28883395	    -11.35818542	      9.45633431	    -55.58816032	     -1.89677834	      3.16096223	     12.27274183	     -0.39778851	     -2.63914839	    110.29031594	    -19.37525167	     45.22322325	     52.03302918	     88.37246079	    -28.70136872	     -2.12775218	     43.78300298	    104.68507505	    -10.78430224	     26.14152451	     59.49873398	    113.96378643	    -18.60151787	     11.33044227	     71.73982716
      0.74250000	      0.11605072	     -2.46460731	     87.12503242	     -0.01564243	      1.82705957	      1.25217649	     54.06857691	     -6.37673789	      2.13678333	    -96.44478490	    -14.97332254	    -14.47131134	     10.14624433	     48.11792774	      2.15457992	      0.51641786	    -91.50790509	    -32.30362506	    -11.19962052	      9.49891396	    -55.91770755	     -1.86455953	      3.09145155	     12.31650349	     -0.41027874	     -2.58379020	    109.36538199	    -19.78456527	     45.51477989	     51.98289900	     88.47858822	    -28.59247095	     -2.01050712	     43.91284154	    103.90405719	    -11.14572546	     26.23602955	     59.37218287	    114.05969746	    -18.54995377	     11.40025908	     71.75491356
      0.74500000	      0.14903817	     -2.10157539	     87.13469516	     -0.01580468	      1.82475833	      1.24767207	     54.11347725	     -6.30758326	      2.04007331	    -95.98041600	    -15.18894337	    -14.33257141	     10.15948693	     48.03416901	      2.19024449	      0.45875109	    -90.75734046	    -32.33169929	    -10.81285196	      9.62369546	    -56.31846983	     -1.83477198	      3.01059945	     12.22943995	     -0.41556076	     -2.45836975	    108.31817156	    -20.32251288	     45.80924059	     52.15110858	     88.73580580	    -28.45721511	     -1.79573385	     44.16870510	    102.96076262	    -11.55299326	     26.29416418	     59.45642260	    114.32747563	    -18.50374226	     11.51135762	     71.75653078
      0.74750000	      0.11427904	     -1.65872197	     87.15332210	     -0.01579905	      1.82292838	      1.24338287	     54.01497152	     -6.28352667	      1.97391760	    -95.36752813	    -15.38053739	    -14.16113432	     10.30934470	     47.78196584	      2.27162226	      0.44675494	    -89.85041384	    -32.00545424	     -9.84356650	     10.16550387	    -56.89281662	     -1.89104147	      2.86324742	     12.43492004	     -0.39989735	     -2.29962680	    107.30877341	    -20.81209495	     45.87016768	     52.29366552	     89.54354384	    -28.39985870	     -1.09593974	     44.79987393	    102.11471596	    -11.75965069	     26.11008408	     59.43041235	    115.30090282	    -18.43861874	     11.88404141	     71.65516543
      0.75000000	      0.15942247	     -1.46615534	     87.17372869	     -0.01583915	      1.82041596	      1.23926386	     54.19428358	     -6.22367482	      1.78895918	    -94.77090509	    -15.41829943	    -14.09283415	     10.31877478	     47.84845110	      2.22745675	      0.33282315	    -88.97930940	    -31.96397880	     -9.79232719	     10.20965417	    -57.13992465	     -1.85767392	      2.77979008	     12.41350260	     -0.39022772	     -2.30408554	    106.31345845	    -21.24655092	     46.20888201	     52.17475529	     89.59953809	    -28.29810922	     -1.01439801	     44.89254363	    101.28751252	    -12.15956746	     26.27724576	     59.25733496	    115.35561060	    -18.33772466	     11.94365424	     71.70014781
      0.75250000	      0.16324600	     -1.18511752	     87.21990028	     -0.01584170	      1.81775157	      1.23474154	     54.28932856	     -6.17527784	      1.67150723	    -94.25890227	    -15.60352290	    -13.94733749	     10.34248693	     47.80446667	      2.26577038	      0.25795350	    -88.16048216	    -31.90928305	     -9.57404990	     10.33504753	    -57.42337806	     -1.84556718	      2.65138138	     12.19839529	     -0.37834160	     -2.23377153	    105.17556785	    -21.84523903	     46.58796746	     52.32030052	     89.74107995	    -28.18989525	     -0.93888459	     45.05234955	    100.29343451	    -12.61565416	     26.41065338	     59.31533771	    115.50306333	    -18.19965810	     12.00937643	     71.79518002
